<svg width="28" height="28" viewBox="0 0 28 28" fill="none" xmlns="http://www.w3.org/2000/svg">
<path d="M25.5604 6.69C21.4804 0.4 13.1504 -1.47 6.69036 2.44C0.400358 6.35 -1.63964 14.85 2.44036 21.14L2.78036 21.65L1.42036 26.75L6.52036 25.39L7.03036 25.73C9.24036 26.92 11.6204 27.6 14.0004 27.6C16.5504 27.6 19.1004 26.92 21.3104 25.56C27.6004 21.48 29.4704 13.15 25.5604 6.69V6.69ZM21.9904 19.78C21.3104 20.8 20.4604 21.48 19.2704 21.65C18.5904 21.65 17.7404 21.99 14.3404 20.63C11.4504 19.27 9.07036 17.06 7.37036 14.51C6.35036 13.32 5.84036 11.79 5.67036 10.26C5.67036 8.9 6.18036 7.71 7.03036 6.86C7.37036 6.52 7.71036 6.35 8.05036 6.35H8.90036C9.24036 6.35 9.58036 6.35 9.75036 7.03C10.0904 7.88 10.9404 9.92 10.9404 10.09C11.1104 10.26 11.1104 10.6 10.9404 10.77C11.1104 11.11 10.9404 11.45 10.7704 11.62C10.6004 11.79 10.4304 12.13 10.2604 12.3C9.92036 12.47 9.75036 12.81 9.92036 13.15C10.6004 14.17 11.4504 15.19 12.3004 16.04C13.3204 16.89 14.3404 17.57 15.5304 18.08C15.8704 18.25 16.2104 18.25 16.3804 17.91C16.5504 17.57 17.4004 16.72 17.7404 16.38C18.0804 16.04 18.2504 16.04 18.5904 16.21L21.3104 17.57C21.6504 17.74 21.9904 17.91 22.1604 18.08C22.3304 18.59 22.3304 19.27 21.9904 19.78V19.78Z" fill="#E71D36"/>
</svg>
